<?xml version="1.0" encoding="UTF-8" standalone="no"?>
<svg width="220px" height="60px" viewBox="0 0 220 60" version="1.1" xmlns="http://www.w3.org/2000/svg" xmlns:xlink="http://www.w3.org/1999/xlink" xmlns:sketch="http://www.bohemiancoding.com/sketch/ns">
    <!-- Generator: Sketch Beta 3.0.4 (8156) - http://www.bohemiancoding.com/sketch -->
    <title>about_page_title_content</title>
    <desc>Created with Sketch Beta.</desc>
    <defs></defs>
    <g id="Page-2" stroke="none" stroke-width="1" fill="none" fill-rule="evenodd" sketch:type="MSPage">
        <g id="Desktop-HD" sketch:type="MSArtboardGroup" transform="translate(-57.000000, -168.000000)" fill="#FFFFFF">
            <path d="M82.9,187.03 L83.08,187.03 L83.23,187.03 C84.49,187.03 85.63,187.09 86.5,187.21 L86.5,183.82 C85.66,183.94 84.28,184 82.87,184 L80.29,184 C80.38,182.74 80.38,182.74 80.41,179.98 L83.47,179.98 C84.4,179.98 85.12,180.04 85.93,180.16 L85.93,176.83 C85.06,176.95 84.46,177.01 83.59,177.01 L82.33,177.01 C83.14,175.69 83.65,174.55 84.7,171.91 L81.64,170.89 C80.98,173.44 80.5,174.73 79.33,177.01 L76.03,177.01 L78.31,175.69 C77.29,173.32 77.05,172.9 75.88,170.89 L73.27,172.3 C74.41,174.07 74.95,175.15 75.58,177.01 L74.59,177.01 C73.36,177.01 72.55,176.95 71.95,176.86 L71.95,180.16 C72.67,180.04 73.78,179.98 74.77,179.98 L77.2,179.98 C77.14,182.92 77.14,182.98 77.08,184 L74.62,184 C73.12,184 71.92,183.94 71.35,183.85 L71.35,187.18 C71.92,187.09 73.09,187.03 74.62,187.03 L76.75,187.03 C76.06,189.16 75.4,190.39 74.29,191.74 C73.21,193.06 72.16,193.93 70.24,195.04 L70.24,191.38 C70.84,191.2 71.44,190.99 72.01,190.81 L72.01,187.84 C71.71,187.96 71.35,188.08 70.9,188.23 C70.54,188.35 70.54,188.35 70.24,188.44 L70.24,174.67 C71.08,174.67 71.17,174.7 72.01,174.76 L72.01,171.61 C71.26,171.7 70.6,171.73 69.31,171.73 L61.93,171.73 C60.67,171.73 59.98,171.7 59.29,171.61 L59.29,174.79 C59.95,174.7 60.37,174.67 61.03,174.67 L61.12,174.67 L61.12,190.9 C60.34,191.08 59.95,191.14 58.99,191.23 L59.77,194.59 C60.16,194.47 60.58,194.35 61,194.23 C63.88,193.45 63.88,193.45 64.06,193.39 C65.47,192.97 66.04,192.79 67.21,192.37 L67.21,194.95 C67.21,196.42 67.18,197.2 67.03,198.37 L70.42,198.37 C70.3,197.44 70.27,196.78 70.24,195.31 C71.14,196.42 71.62,197.2 72.16,198.49 C75.88,195.58 77.59,193.36 78.61,190.03 C79.39,192.01 80.14,193.27 81.52,194.86 C82.69,196.27 83.83,197.29 85.63,198.58 C86.11,197.29 86.71,196.21 87.49,195.19 C85.81,194.35 84.67,193.45 83.32,191.89 C81.94,190.27 81.19,188.95 80.62,187.06 L82.9,187.03 Z M64.06,174.67 L67.21,174.67 L67.21,177.85 L64.06,177.85 L64.06,174.67 Z M64.06,180.49 L67.21,180.49 L67.21,183.64 L64.06,183.64 L64.06,180.49 Z M64.06,186.31 L67.21,186.31 L67.21,189.25 C65.74,189.73 65.29,189.85 64.06,190.21 L64.06,186.31 Z M91.54,188.17 C94.06,188.08 94.06,188.08 101.5,187.9 L101.5,194.2 C101.5,194.92 101.32,195.07 100.48,195.07 C99.43,195.07 98.29,194.98 97.09,194.77 C97.57,195.79 97.75,196.45 97.9,197.98 C99.13,198.07 100.15,198.1 100.87,198.1 C102.58,198.1 103.3,197.98 103.9,197.62 C104.53,197.23 104.83,196.54 104.83,195.37 L104.83,187.81 C108.61,187.69 108.61,187.69 110.26,187.6 C110.83,187.57 111.76,187.54 112.87,187.48 C113.56,188.59 113.62,188.68 114.25,189.79 L117.04,187.99 C115.03,184.9 114.61,184.33 111.61,180.85 L109.03,182.35 C110.02,183.49 110.35,183.88 110.98,184.72 C104.32,185.05 104.32,185.05 99.31,185.14 C103.57,183.16 106.18,181.63 109.72,179.02 C110.47,178.48 110.62,178.36 111.22,177.97 L108.1,176.11 C107.89,176.29 107.83,176.35 107.71,176.47 C107.35,176.83 107.35,176.83 107.2,176.95 C106.63,177.46 105.88,178.06 105.07,178.69 C101.53,178.93 101.53,178.93 98.38,179.02 C100.21,177.52 100.99,176.8 102.82,174.97 C105.13,174.82 109.54,174.28 112.12,173.8 C113.68,173.53 113.68,173.53 114.19,173.44 L112.09,170.44 C110.74,170.92 110.2,171.07 108.79,171.31 C104.95,172.03 98.38,172.51 92.53,172.51 C92.11,172.51 91.48,172.51 90.64,172.48 C91.27,173.71 91.45,174.22 91.78,175.48 C94.75,175.39 95.53,175.36 98.47,175.21 C97.66,176.11 96.94,176.8 95.68,177.88 C94.48,178.72 93.97,178.9 92.29,179.11 L92.86,182.11 C94.12,182.05 94.12,182.05 95.8,181.99 C97.75,181.9 97.75,181.9 99.01,181.84 C99.31,181.81 99.76,181.78 100.36,181.75 C98.44,182.86 96.82,183.7 95.41,184.3 C94,184.9 93.37,185.02 91,185.23 L91.54,188.17 Z M96.31,188.86 C94.6,191.44 92.71,193.03 89.29,194.83 C90.19,195.67 90.88,196.48 91.54,197.56 C95.2,195.13 96.82,193.63 98.98,190.51 L96.31,188.86 Z M116.56,195.04 C114.97,193.21 112.42,190.84 109.6,188.59 L107.02,190.54 C108.49,191.68 108.85,192.01 110.74,193.9 C112.24,195.43 112.45,195.64 113.98,197.59 L116.56,195.04 Z M143.08,182.2 L143.26,182.2 C144.52,182.2 145.66,182.26 146.56,182.35 L146.56,179.02 C145.6,179.14 144.76,179.2 143.35,179.2 L137.65,179.23 C137.53,177.1 137.47,175.42 137.47,173.86 C137.47,172.12 137.5,171.82 137.68,171.16 L134.11,171.16 C134.23,171.76 134.23,171.94 134.26,172.6 C134.29,173.17 134.35,174.61 134.44,176.92 C134.47,177.88 134.5,178.3 134.56,179.26 L128.56,179.29 L128.56,175.06 C129.52,174.82 130.12,174.64 131.53,174.19 C132.31,173.95 132.76,173.8 133.12,173.74 L131.47,170.8 C130.72,171.25 130.24,171.46 129.07,171.85 C126.19,172.78 123.19,173.35 119.65,173.68 C120.22,174.67 120.52,175.36 120.82,176.56 C122.89,176.29 124.15,176.08 125.38,175.81 L125.38,179.29 L122.95,179.32 L122.68,179.32 C121.27,179.32 120.31,179.26 119.47,179.17 L119.47,182.5 C120.43,182.38 121.42,182.32 122.95,182.29 L125.38,182.29 L125.38,186.52 C122.62,187.03 120.46,187.33 119.59,187.33 L119.35,187.33 L119.95,190.75 C120.49,190.57 120.82,190.51 121.87,190.33 C122.74,190.18 123.64,190 125.38,189.67 L125.38,194.2 C125.38,194.8 125.2,194.92 124.36,194.92 C123.4,194.92 122.68,194.86 121.66,194.71 C121.51,194.68 121.27,194.65 120.94,194.59 C121.48,195.94 121.6,196.57 121.72,197.92 C122.77,197.98 123.94,198.04 124.6,198.04 C126.04,198.04 126.97,197.89 127.57,197.56 C128.32,197.14 128.56,196.48 128.56,194.95 L128.56,188.98 C129.79,188.68 130.6,188.47 133.39,187.69 L133.3,184.72 C130.78,185.41 130,185.62 128.56,185.92 L128.56,182.26 L134.8,182.23 C135.16,185.47 135.79,188.29 136.63,190.33 C134.53,192.16 132.37,193.39 129.25,194.59 C130.27,195.64 130.72,196.27 131.32,197.44 C133.99,196.21 135.91,194.98 138.01,193.21 C139.84,196.42 141.76,198.13 143.56,198.13 C144.55,198.13 145.27,197.68 145.78,196.66 C146.23,195.73 146.53,194.56 146.95,192.07 C145.81,191.5 145.48,191.26 144.22,190.09 C143.95,192.97 143.62,194.29 143.14,194.29 C142.57,194.29 141.4,192.85 140.41,190.96 C141.79,189.46 142.66,188.29 143.95,186.25 C144.37,185.56 144.61,185.17 144.97,184.69 L142.09,182.98 C141.61,184.39 140.5,186.16 139.03,187.9 C138.46,186.19 138.1,184.3 137.89,182.23 L143.08,182.2 Z M138.64,173.2 C140.41,175 140.95,175.69 142.87,178.54 L145.27,176.53 C144.01,174.64 142.84,173.26 140.95,171.52 L138.64,173.2 Z M154.9,178.24 C155.41,176.86 155.95,175.12 156.52,173.11 C156.64,172.69 156.7,172.54 156.88,172 L153.7,170.92 C153.61,171.82 153.43,172.72 153.04,174.01 C151.96,177.67 150.61,180.25 148.39,183.04 C149.2,184.24 149.38,184.69 149.86,186.52 C150.91,185.17 151.39,184.42 151.96,183.25 C151.87,184.39 151.87,184.66 151.87,186.37 L151.87,194.56 C151.87,196.06 151.81,197.08 151.69,198.37 L155.05,198.37 C154.93,197.41 154.9,196.51 154.9,194.62 L154.9,178.24 Z M165.13,175.63 C166.51,175.48 167.41,175.42 167.86,175.42 L172.66,175.42 L172.66,194.29 C172.66,194.95 172.51,195.04 171.58,195.04 C170.68,195.04 169.81,194.98 168.37,194.77 C168.82,195.82 168.97,196.42 169.18,198.04 C170.32,198.1 171.16,198.13 171.64,198.13 C174.97,198.13 175.87,197.44 175.87,194.89 L175.87,175.72 C175.87,173.59 175.87,173.23 175.99,172.21 C175.03,172.33 174.34,172.36 173.38,172.36 L167.98,172.36 C166.9,172.36 166.06,172.33 165.13,172.21 L165.13,175.63 Z M160.93,198.37 C160.81,197.8 160.78,197.08 160.78,194.86 L160.78,180.64 C160.78,179.35 160.81,178.21 160.9,177.16 L157.48,177.16 C157.54,178.45 157.57,179.17 157.57,180.64 L157.57,194.65 C157.57,196.12 157.54,197.2 157.42,198.37 L160.93,198.37 Z M164.74,176.41 C163.33,173.71 162.7,172.63 161.35,170.8 L158.74,172.12 C160.45,174.76 160.84,175.45 161.92,177.94 L164.74,176.41 Z" id="联系我们" sketch:type="MSShapeGroup"></path>
            <path d="M60.934,209.734 C60.16,209.734 59.638,209.698 59.062,209.626 L59.062,210.832 C59.584,210.778 60.178,210.742 60.898,210.742 L63.166,210.742 C63.544,211.426 63.85,212.218 64.048,212.92 L61.51,212.92 C60.808,212.92 60.178,212.902 59.8,212.848 C59.854,213.316 59.872,213.748 59.872,214.306 L59.872,222.406 C59.872,223.234 59.836,223.756 59.764,224.368 L61.114,224.368 C61.042,223.774 61.006,223.252 61.006,222.406 L61.006,213.892 L72.994,213.892 L72.994,222.658 C72.994,223.036 72.832,223.144 72.22,223.144 C71.59,223.144 70.708,223.072 69.844,222.946 C70.024,223.36 70.096,223.612 70.15,224.152 C70.996,224.206 71.644,224.224 72.148,224.224 C73.03,224.224 73.372,224.17 73.678,223.954 C73.984,223.756 74.128,223.378 74.128,222.748 L74.128,214.306 C74.128,213.676 74.146,213.298 74.2,212.848 C73.786,212.902 73.372,212.92 72.508,212.92 L69.754,212.92 C70.114,212.326 70.438,211.66 70.816,210.742 L73.21,210.742 C73.948,210.742 74.524,210.778 75.046,210.832 L75.046,209.626 C74.542,209.698 73.966,209.734 73.174,209.734 L68.062,209.734 C67.828,209.302 67.288,208.474 66.82,207.79 L65.794,208.24 C66.172,208.744 66.208,208.798 66.766,209.734 L60.934,209.734 Z M69.61,210.742 C69.286,211.678 69.16,211.93 68.584,212.92 L65.218,212.92 C65.074,212.416 64.732,211.552 64.354,210.742 L69.61,210.742 Z M67.882,214.792 C68.998,215.494 70.24,216.52 71.518,217.78 L72.418,217.024 C70.996,215.782 69.916,214.954 68.692,214.18 L67.882,214.792 Z M64.894,214.288 C64.462,215.098 64.174,215.476 63.616,215.98 C63.076,216.466 62.608,216.772 61.636,217.276 C61.978,217.546 61.978,217.546 62.482,218.086 C64.21,217.042 64.696,216.574 66.118,214.594 L64.894,214.288 Z M70.258,219.184 C70.258,218.482 70.276,218.194 70.33,217.708 C69.988,217.744 69.592,217.762 68.692,217.762 L65.128,217.762 C64.444,217.762 64.12,217.744 63.598,217.708 C63.652,218.104 63.67,218.482 63.67,218.95 L63.67,221.614 C63.67,222.1 63.652,222.46 63.58,222.928 L64.732,222.928 L64.732,222.01 L68.692,222.01 C69.394,222.01 69.844,222.028 70.33,222.082 C70.276,221.56 70.258,221.29 70.258,220.516 L70.258,219.184 Z M64.732,218.698 L69.196,218.698 L69.196,221.074 L64.732,221.074 L64.732,218.698 Z M90.058,209.698 C89.59,209.77 89.158,209.788 88.384,209.788 L82.948,209.788 C83.164,209.518 83.218,209.464 83.488,209.104 C83.632,208.906 83.83,208.636 84.118,208.294 L82.822,207.988 C82.66,208.402 82.246,209.014 81.616,209.698 C80.5,210.958 79.24,211.858 77.404,212.74 C77.818,213.064 77.836,213.082 78.178,213.532 C79.51,212.866 80.212,212.398 81.328,211.444 C82.336,212.668 82.876,213.136 84.244,214.018 C82.21,214.792 79.996,215.278 77.386,215.566 C77.674,215.962 77.782,216.178 77.908,216.628 C81.076,216.124 83.488,215.494 85.414,214.666 C86.116,214.99 86.188,215.026 86.638,215.188 C88.384,215.8 89.968,216.178 92.506,216.556 C92.668,216.07 92.758,215.872 93.064,215.44 C90.202,215.08 88.474,214.684 86.71,214 C87.844,213.352 88.834,212.56 89.716,211.588 C90.526,210.67 90.58,210.616 90.742,210.454 L90.058,209.698 Z M82.084,210.724 L88.96,210.724 C87.79,212.038 86.746,212.866 85.504,213.46 C84.154,212.794 83.164,212.038 82.012,210.796 L82.084,210.724 Z M83.668,218.878 C82.642,221.326 80.806,222.496 76.972,223.162 C77.26,223.504 77.422,223.792 77.602,224.242 C81.724,223.324 83.758,221.794 84.838,218.878 L90.13,218.878 C90.004,220.264 89.86,221.146 89.59,221.884 C89.338,222.604 89.086,222.766 88.168,222.766 C87.376,222.766 86.638,222.694 85.684,222.532 C85.864,222.928 85.936,223.18 86.044,223.738 C87.034,223.828 87.592,223.864 88.168,223.864 C88.942,223.864 89.464,223.792 89.734,223.684 C90.094,223.504 90.364,223.18 90.544,222.748 C90.886,221.794 91.192,220.228 91.372,218.428 C91.426,217.942 91.426,217.942 91.444,217.78 C90.958,217.834 90.472,217.852 89.59,217.852 L85.144,217.852 C85.198,217.69 85.216,217.546 85.252,217.366 C85.432,216.376 85.432,216.376 85.504,216.16 L84.136,216.088 C84.154,216.232 84.172,216.286 84.172,216.394 C84.172,216.808 84.1,217.33 83.974,217.852 L79.906,217.852 C79.006,217.852 78.484,217.816 78.052,217.744 L78.052,218.986 C78.538,218.914 79.024,218.878 79.888,218.878 L83.668,218.878 Z M103.72,208.06 L102.586,207.556 C101.92,208.762 101.11,209.788 99.958,210.868 C98.356,212.38 96.862,213.334 94.63,214.288 C95.008,214.702 95.152,214.9 95.314,215.314 C95.962,215.008 96.394,214.774 97.276,214.252 C98.536,213.496 99.454,212.812 100.768,211.642 C101.614,210.868 102.028,210.418 102.856,209.32 C104.674,211.714 107.374,213.766 110.812,215.332 C111.01,214.9 111.208,214.612 111.514,214.252 C109.768,213.604 108.184,212.704 106.582,211.48 C105.196,210.418 104.386,209.572 103.522,208.348 L103.72,208.06 Z M98.752,214.774 C99.13,214.72 99.598,214.702 100.156,214.702 L105.754,214.702 C106.438,214.702 106.87,214.72 107.266,214.774 L107.266,213.55 C106.888,213.604 106.456,213.622 105.754,213.622 L100.174,213.622 C99.508,213.622 99.076,213.604 98.752,213.55 L98.752,214.774 Z M98.626,224.17 L98.626,223.126 L107.32,223.126 L107.32,224.17 L108.616,224.17 C108.544,223.648 108.508,223.108 108.508,222.406 L108.508,218.428 C108.508,217.726 108.526,217.258 108.598,216.772 C108.22,216.826 107.842,216.844 107.194,216.844 L98.752,216.844 C98.104,216.844 97.726,216.826 97.348,216.772 C97.42,217.276 97.438,217.762 97.438,218.428 L97.438,222.406 C97.438,223.09 97.402,223.612 97.33,224.17 L98.626,224.17 Z M98.626,217.942 L107.32,217.942 L107.32,222.064 L98.626,222.064 L98.626,217.942 Z M123.106,211.858 L127.336,211.858 C128.092,211.858 128.524,211.876 128.974,211.948 L128.974,210.724 C128.452,210.814 128.056,210.832 127.336,210.832 L121.63,210.832 C121.846,210.31 121.99,209.968 122.242,209.23 C122.404,208.762 122.458,208.618 122.602,208.312 L121.342,207.898 C121.288,208.51 121.018,209.392 120.586,210.454 C119.776,212.398 118.804,213.892 117.4,215.386 C117.922,215.746 117.94,215.764 118.3,216.25 C119.488,214.846 120.316,213.568 121.162,211.858 L121.954,211.858 L121.954,222.496 C121.954,223.45 121.918,223.954 121.846,224.386 L123.232,224.386 C123.142,223.936 123.106,223.378 123.106,222.496 L123.106,219.742 L126.814,219.742 C127.444,219.742 127.912,219.778 128.398,219.85 L128.398,218.608 C127.894,218.68 127.462,218.716 126.814,218.716 L123.106,218.716 L123.106,215.8 L126.76,215.8 C127.372,215.8 127.786,215.836 128.344,215.908 L128.344,214.666 C127.84,214.738 127.426,214.774 126.76,214.774 L123.106,214.774 L123.106,211.858 Z M117.148,207.898 C117.04,208.6 116.806,209.374 116.392,210.31 C115.438,212.488 114.178,214.27 112.594,215.71 C113.008,216.124 113.008,216.124 113.35,216.664 C114.394,215.602 114.952,214.882 115.582,213.82 C115.528,214.882 115.51,215.368 115.51,216.142 L115.51,222.118 C115.51,222.982 115.474,223.612 115.384,224.314 L116.788,224.314 C116.698,223.72 116.662,222.964 116.662,222.154 L116.662,212.308 C117.346,210.958 117.58,210.436 117.994,209.32 C118.138,208.96 118.192,208.798 118.408,208.312 L117.148,207.898 Z M145.174,213.586 C144.886,213.64 144.436,213.658 143.644,213.658 L141.304,213.658 C141.628,212.65 142.132,210.868 142.402,209.68 C142.492,209.32 142.492,209.32 142.6,208.942 C142.06,208.978 141.358,209.014 140.764,209.014 L133.672,209.014 C132.862,209.014 132.268,208.978 131.782,208.906 L131.782,210.166 C132.358,210.094 132.862,210.058 133.6,210.058 L135.382,210.058 C135.346,210.67 135.346,210.67 135.202,213.604 C135.166,214.288 135.022,215.296 134.824,216.124 C134.104,219.274 132.862,221.416 130.72,223.216 C131.098,223.45 131.35,223.702 131.656,224.116 C133.204,222.604 134.122,221.326 134.86,219.598 C135.544,218.032 135.976,216.448 136.192,214.612 C137.038,216.646 138.442,218.68 140.08,220.246 C139.378,220.804 138.892,221.146 138.262,221.506 C136.858,222.352 135.778,222.802 134.41,223.126 C134.788,223.63 134.806,223.666 134.968,224.062 C134.986,224.116 135.022,224.17 135.058,224.278 C137.794,223.198 139.036,222.496 140.908,220.966 C141.484,221.452 142.042,221.866 142.708,222.316 C143.842,223.072 144.526,223.414 146.65,224.296 C146.902,223.666 146.938,223.63 147.316,223.09 C144.832,222.28 143.464,221.56 141.754,220.21 C142.96,219.058 144.274,217.204 145.066,215.584 C145.534,214.612 145.606,214.468 145.75,214.252 L145.174,213.586 Z M141.088,210.058 C140.818,211.444 140.404,212.92 139.774,214.738 C140.062,214.72 140.116,214.72 140.386,214.702 C140.62,214.684 140.62,214.684 141.304,214.648 L144.256,214.648 C143.266,216.79 142.384,218.086 140.926,219.49 C139.738,218.392 138.874,217.402 138.154,216.25 C137.416,215.098 136.732,213.604 136.354,212.38 C136.444,210.706 136.444,210.706 136.48,210.058 L141.088,210.058 Z M160.906,213.082 L162.976,213.082 C163.66,213.082 164.218,213.118 164.776,213.19 L164.776,211.912 C164.2,211.984 163.678,212.02 162.958,212.02 L162.112,212.02 C162.634,211.102 163.156,210.04 163.768,208.708 L162.58,208.276 C162.13,209.716 161.788,210.49 160.96,212.02 L157.954,212.02 C157.234,212.02 156.802,212.002 156.388,211.93 L156.388,213.172 C156.874,213.1 157.27,213.082 157.99,213.082 L159.808,213.082 L159.808,214.09 C159.808,214.864 159.772,215.386 159.7,216.142 L157.702,216.142 C156.946,216.142 156.496,216.124 156.028,216.052 L156.028,217.312 C156.496,217.24 156.964,217.222 157.702,217.222 L159.556,217.222 C159.25,219.058 158.602,220.426 157.414,221.74 C156.82,222.37 156.406,222.712 155.488,223.288 C155.884,223.648 156.046,223.846 156.316,224.314 C156.982,223.828 157.27,223.594 157.63,223.234 C158.368,222.478 159.088,221.542 159.538,220.678 C159.916,219.994 160.222,219.148 160.402,218.41 C161.23,220.984 162.382,222.586 164.722,224.35 C164.956,223.792 165.064,223.63 165.46,223.162 C163.192,221.884 161.86,220.12 160.942,217.222 L163.264,217.222 C164.02,217.222 164.56,217.258 165.118,217.33 L165.118,216.034 C164.56,216.106 164.056,216.142 163.246,216.142 L160.78,216.142 C160.834,215.53 160.87,214.954 160.888,213.802 L160.906,213.082 Z M155.074,209.626 C155.542,209.626 156.01,209.644 156.388,209.68 L156.388,208.528 C156.046,208.582 155.632,208.6 154.948,208.6 L150.196,208.6 C149.53,208.6 149.152,208.582 148.81,208.528 L148.81,209.698 C149.134,209.644 149.548,209.626 150.052,209.626 L150.142,209.626 L150.142,220.354 C149.89,220.408 149.764,220.426 149.62,220.462 C149.224,220.57 149.206,220.57 148.702,220.588 L148.954,221.848 C149.26,221.722 149.764,221.578 150.394,221.416 C152.032,221.002 152.968,220.732 153.994,220.39 L153.994,222.352 C153.994,223.306 153.958,223.81 153.886,224.26 L155.164,224.26 C155.092,223.81 155.074,223.324 155.074,222.352 L155.074,220.03 C155.344,219.922 155.632,219.814 156.262,219.544 L156.28,218.536 C155.686,218.752 155.47,218.842 155.074,218.986 L155.074,209.626 Z M153.994,209.626 L153.994,212.308 L151.24,212.308 L151.24,209.626 L153.994,209.626 Z M153.994,213.262 L153.994,215.98 L151.24,215.98 L151.24,213.262 L153.994,213.262 Z M153.994,216.934 L153.994,219.364 C153.13,219.652 152.032,219.958 151.24,220.12 L151.24,216.934 L153.994,216.934 Z M159.7,211.246 C159.052,209.95 158.692,209.356 157.9,208.276 L156.982,208.78 C157.846,209.932 158.206,210.58 158.656,211.768 L159.7,211.246 Z M180.382,207.862 C179.32,208.276 178.87,208.402 177.34,208.672 C174.694,209.14 171.112,209.446 168.124,209.446 L167.998,209.446 C168.25,209.842 168.358,210.094 168.466,210.508 C170.626,210.418 170.626,210.418 173.236,210.202 C172.39,211.138 171.508,212.002 170.716,212.65 C169.996,213.262 169.672,213.442 169.06,213.586 L169.294,214.612 C170.05,214.486 170.338,214.468 171.562,214.414 C172.282,214.378 172.84,214.342 173.254,214.306 C173.704,214.27 173.758,214.27 174.136,214.234 C173.416,214.702 171.4,215.836 170.716,216.178 C169.78,216.646 168.97,216.898 167.998,217.078 L168.16,218.104 C168.898,218.032 170.482,217.924 173.074,217.816 L174.55,217.744 L174.55,222.496 C174.55,222.748 174.496,222.982 174.424,223.036 C174.316,223.09 174.028,223.126 173.632,223.126 C173.308,223.126 173.02,223.108 172.318,223 C172.444,223.45 172.48,223.63 172.534,224.152 C173.29,224.206 173.56,224.224 173.848,224.224 C174.496,224.224 175.054,224.098 175.342,223.9 C175.612,223.702 175.72,223.378 175.72,222.748 L175.72,217.672 C177.394,217.6 179.896,217.42 180.76,217.312 C181.48,218.302 181.48,218.302 181.93,218.968 L182.866,218.248 C181.444,216.358 180.85,215.674 179.302,214.108 L178.438,214.684 C179.338,215.584 179.608,215.89 180.04,216.412 C176.368,216.79 176.368,216.79 174.694,216.862 C172.12,217.006 172.12,217.006 170.806,217.096 C172.624,216.25 173.632,215.674 175.432,214.468 C176.62,213.676 177.34,213.136 178.888,211.84 L177.916,211.156 C176.98,212.056 176.53,212.452 175.72,213.082 C175.612,213.172 175.594,213.19 175.504,213.244 C174.316,213.316 173.38,213.388 172.678,213.406 C172.354,213.424 171.814,213.46 171.148,213.478 C172.894,212.056 172.93,212.02 174.748,210.058 C176.062,209.932 178.798,209.482 180.004,209.194 C180.886,208.978 180.886,208.978 181.21,208.924 L180.382,207.862 Z M171.256,218.716 C170.23,220.336 168.826,221.65 167.098,222.64 C167.44,222.91 167.674,223.18 167.962,223.612 C169.78,222.37 170.986,221.146 172.228,219.328 L171.256,218.716 Z M182.65,222.676 C181.75,221.632 181.12,221.02 180.076,220.174 C178.798,219.148 178.798,219.148 178.276,218.734 L177.484,219.508 C178.402,220.174 178.816,220.516 179.806,221.416 C180.562,222.1 180.85,222.424 181.75,223.504 L182.65,222.676 Z M190.912,212.164 C190.804,213.964 190.75,214.45 190.606,215.314 C190.228,217.636 189.454,219.382 188.158,220.84 C187.222,221.902 186.412,222.478 184.936,223.216 C185.386,223.612 185.566,223.792 185.818,224.224 C187.042,223.54 187.582,223.144 188.374,222.388 C189.328,221.488 190.03,220.552 190.57,219.472 C191.092,218.428 191.488,217.222 191.776,215.818 L197.374,215.818 C197.284,218.23 197.122,219.76 196.816,221.272 C196.564,222.604 196.384,222.82 195.574,222.82 C194.8,222.82 193.918,222.73 192.892,222.532 C193.072,223 193.126,223.234 193.18,223.81 C194.152,223.918 195.052,223.972 195.646,223.972 C197.122,223.972 197.554,223.612 197.932,222.046 C198.22,220.822 198.526,218.068 198.616,215.908 C198.634,215.206 198.652,215.008 198.706,214.648 C198.256,214.72 197.806,214.738 196.834,214.738 L191.956,214.738 C192.01,214.288 192.01,214.288 192.172,212.164 L198.994,212.164 C200.038,212.164 200.524,212.182 201.028,212.272 L201.028,210.922 C200.47,211.012 199.894,211.048 198.976,211.048 L187.132,211.048 C186.25,211.048 185.692,211.012 185.116,210.922 L185.116,212.272 C185.602,212.2 186.232,212.164 187.132,212.164 L190.912,212.164 Z M191.434,208.546 C191.992,209.302 192.424,210.04 192.874,210.976 L193.864,210.49 C193.342,209.392 193.09,208.996 192.37,208.024 L191.434,208.546 Z M217.084,212.614 C217.84,212.614 218.416,212.65 218.938,212.722 L218.938,211.426 C218.488,211.498 217.966,211.534 217.192,211.534 L213.808,211.534 C213.772,210.706 213.772,210.346 213.772,209.968 C213.772,209.23 213.808,208.708 213.88,208.312 L212.494,208.312 C212.584,208.96 212.584,208.978 212.602,209.608 C212.62,210.94 212.62,210.94 212.638,211.534 L205.15,211.534 C204.358,211.534 203.8,211.498 203.296,211.426 L203.296,212.722 C203.908,212.65 204.412,212.614 205.15,212.614 L212.674,212.614 C212.692,212.668 212.692,212.686 212.692,212.758 C212.818,215.764 213.286,218.284 214.114,220.426 C214.942,222.568 216.184,223.99 217.246,223.99 C217.696,223.99 218.074,223.738 218.398,223.234 C218.74,222.676 218.956,221.956 219.28,220.426 C218.812,220.228 218.614,220.084 218.218,219.724 C217.93,221.704 217.606,222.676 217.21,222.676 C217.084,222.676 216.886,222.55 216.634,222.334 C216.094,221.848 215.608,221.02 215.14,219.778 C214.744,218.752 214.51,217.852 214.24,216.394 C214.024,215.098 213.97,214.666 213.862,212.614 L217.084,212.614 Z M208.498,216.394 L210.334,216.394 C211.018,216.394 211.486,216.412 211.936,216.484 L211.936,215.278 C211.486,215.35 211.09,215.368 210.316,215.368 L205.654,215.368 C204.88,215.368 204.448,215.35 204.016,215.278 L204.016,216.484 C204.466,216.412 204.952,216.394 205.636,216.394 L207.346,216.394 L207.346,221.47 C205.042,221.902 205.042,221.902 204.484,221.956 C203.764,222.028 203.764,222.028 203.404,222.028 L203.674,223.306 C203.89,223.252 204.232,223.18 204.484,223.126 C207.472,222.586 209.884,222.064 212.548,221.362 L212.548,220.264 C209.974,220.948 209.524,221.056 208.498,221.254 L208.498,216.394 Z M217.75,210.418 C216.976,209.626 216.508,209.23 215.464,208.474 L214.636,209.086 C215.626,209.788 216.112,210.22 216.904,211.102 L217.75,210.418 Z" id="商务合作及联系方式" sketch:type="MSShapeGroup"></path>
        </g>
    </g>
</svg>