<?xml version="1.0" encoding="UTF-8" standalone="no"?>
<svg width="70px" height="70px" viewBox="0 0 70 70" version="1.1" xmlns="http://www.w3.org/2000/svg" xmlns:xlink="http://www.w3.org/1999/xlink" xmlns:sketch="http://www.bohemiancoding.com/sketch/ns">
    <!-- Generator: Sketch Beta 3.0.4 (8156) - http://www.bohemiancoding.com/sketch -->
    <title>about_page_icon_content</title>
    <desc>Created with Sketch Beta.</desc>
    <defs></defs>
    <g id="Page-2" stroke="none" stroke-width="1" fill="none" fill-rule="evenodd" sketch:type="MSPage">
        <g id="Desktop-HD" sketch:type="MSArtboardGroup" transform="translate(-327.000000, -159.000000)" fill="#FFFFFF">
            <path d="M362,229 C381.329966,229 397,213.329966 397,194 C397,174.670034 381.329966,159 362,159 C342.670034,159 327,174.670034 327,194 C327,213.329966 342.670034,229 362,229 Z M362,226 C379.673112,226 394,211.673112 394,194 C394,176.326888 379.673112,162 362,162 C344.326888,162 330,176.326888 330,194 C330,211.673112 344.326888,226 362,226 Z" id="Oval-2" sketch:type="MSShapeGroup"></path>
            <g id="Oval-5-+-Oval-6" sketch:type="MSLayerGroup" transform="translate(345.000000, 177.000000)">
                <path d="M17,22 C22.5228475,22 27,17.0751322 27,11 C27,4.92486775 22.5228475,0 17,0 C11.4771525,0 7,4.92486775 7,11 C7,17.0751322 11.4771525,22 17,22 Z M17,19 C20.8659932,19 24,15.418278 24,11 C24,6.581722 20.8659932,3 17,3 C13.1340068,3 10,6.581722 10,11 C10,15.418278 13.1340068,19 17,19 Z" id="Oval-5" sketch:type="MSShapeGroup"></path>
                <path d="M33.9866485,33 C33.9955218,32.8341432 34,32.6674562 34,32.5 C34,25.5964406 26.3888407,20 17,20 C7.61115925,20 0,25.5964406 0,32.5 C0,32.6674562 0.00447823514,32.8341432 0.0133514502,33 L33.9866485,33 Z M17,23 C10.5879794,23 5.18275298,25.9605759 3.52411618,30 L30.4758838,30 C28.817247,25.9605759 23.4120206,23 17,23 Z" id="Oval-6" sketch:type="MSShapeGroup"></path>
            </g>
        </g>
    </g>
</svg>